<?xml version="1.0" encoding="UTF-8" standalone="no"?>
<svg width="414px" height="414px" viewBox="0 0 414 414" version="1.1" xmlns="http://www.w3.org/2000/svg" xmlns:xlink="http://www.w3.org/1999/xlink" xmlns:sketch="http://www.bohemiancoding.com/sketch/ns">
    <title>Alternative Fiction Logo</title>
    <defs></defs>
    <g id="Page-1" stroke="none" stroke-width="1" fill="none" fill-rule="evenodd" sketch:type="MSPage">
        <circle id="Oval-1" fill="#000000" sketch:type="MSShapeGroup" cx="207" cy="207" r="207"></circle>
        <ellipse id="Oval-2" fill="#FFFFFF" sketch:type="MSShapeGroup" cx="207" cy="207.187279" rx="186.746476" ry="186.746476"></ellipse>
        <circle id="Oval-3" fill="#000000" sketch:type="MSShapeGroup" cx="207" cy="207.187279" r="171.819788"></circle>
        <path d="M308.640625,111.693359 C319.890681,111.693359 327.09764,114.681611 330.261719,120.658203 C330.261719,132.084042 327.097688,137.796875 320.769531,137.796875 C318.308581,137.796875 315.979503,136.478529 313.782227,133.841797 C311.58495,131.205065 309.299817,128.524428 306.926758,125.799805 C304.553699,123.075182 301.960952,121.712891 299.148438,121.712891 C293.523409,121.712891 287.546907,127.469669 281.21875,138.983398 C274.890593,150.497128 269.968768,166.537007 266.453125,187.103516 L266.453125,187.630859 C266.453125,188.333988 266.716794,188.685547 267.244141,188.685547 L297.566406,188.685547 C298.445317,188.685547 298.884766,189.740224 298.884766,191.849609 C298.884766,194.662123 297.917978,197.650375 295.984375,200.814453 L265.134766,200.814453 C264.255855,200.814453 263.728517,201.517571 263.552734,202.923828 L249.050781,281.761719 C244.83201,306.195435 237.405327,324.828061 226.770508,337.660156 C216.135689,350.492252 204.578187,356.908203 192.097656,356.908203 C185.945282,356.908203 181.111346,355.809581 177.595703,353.612305 C174.080061,351.415028 171.794927,348.91017 170.740234,346.097656 C170.564452,342.054667 171.531239,338.451188 173.640625,335.287109 C175.750011,332.123031 178.386703,330.541016 181.550781,330.541016 C183.13282,330.541016 184.626946,331.375968 186.033203,333.045898 C187.43946,334.715829 188.669917,336.561513 189.724609,338.583008 C190.779302,340.604502 192.317373,342.450187 194.338867,344.120117 C196.360362,345.790047 198.60155,346.625 201.0625,346.625 C204.40236,346.625 207.742171,344.559591 211.082031,340.428711 C214.421892,336.297831 217.278308,331.112336 219.651367,324.87207 C222.024426,318.631805 224.04589,312.699247 225.71582,307.074219 C227.385751,301.449191 228.572262,296.439475 229.275391,292.044922 L245.095703,202.660156 L245.095703,202.132812 C245.095703,201.253902 244.832034,200.814453 244.304688,200.814453 L227.166016,200.814453 C226.814451,200.814453 226.638672,200.550784 226.638672,200.023438 C226.638672,198.441398 228.044908,196.156265 230.857422,193.167969 C233.669936,190.179673 236.482408,188.685547 239.294922,188.685547 L246.941406,188.685547 C247.644535,188.685547 248.171873,187.894539 248.523438,186.3125 C252.03908,164.691298 259.597598,146.84968 271.199219,132.787109 C282.800839,118.724539 295.281183,111.693359 308.640625,111.693359 L308.640625,111.693359 Z" id="-f" fill="#FFFFFF" sketch:type="MSShapeGroup"></path>
        <path d="M164.6875,143.806641 C171.862015,143.806641 178.753222,145.033842 185.361328,147.488281 L168.085938,236.980469 C167.519528,239.246105 167.236328,241.606108 167.236328,244.060547 C167.236328,248.780623 168.180329,251.140625 170.068359,251.140625 C171.201178,251.140625 172.569979,250.621424 174.174805,249.583008 C175.77963,248.544591 177.384432,247.27019 178.989258,245.759766 C180.594084,244.249341 182.057285,242.78614 183.378906,241.370117 C184.700527,239.954094 185.927729,238.679693 187.060547,237.546875 L188.759766,235.564453 C189.137372,235.564453 189.845372,236.461254 190.883789,238.254883 C191.922206,240.048512 192.441406,241.322913 192.441406,242.078125 C189.986967,246.231792 184.889362,251.706997 177.148438,258.503906 C169.407513,265.300815 162.610706,268.699219 156.757812,268.699219 C153.736964,268.699219 151.376962,267.330417 149.677734,264.592773 C147.978507,261.85513 147.128906,258.315126 147.128906,253.972656 C147.128906,250.763005 147.789707,245.7598 149.111328,238.962891 C149.488934,236.886057 149.819335,235.234056 150.102539,234.006836 C150.385744,232.779616 150.527344,231.977215 150.527344,231.599609 C148.639313,234.998064 146.468111,238.443667 144.013672,241.936523 C141.559233,245.429379 138.444029,249.346983 134.667969,253.689453 C130.891908,258.031923 126.879904,261.571926 122.631836,264.30957 C118.383768,267.047214 114.371764,268.416016 110.595703,268.416016 C102.28837,268.416016 95.7275631,264.687212 90.9130859,257.229492 C86.0986087,249.771773 83.6914062,240.756563 83.6914062,230.183594 C83.6914062,216.778579 87.7034104,203.326565 95.7275391,189.827148 C103.751668,176.327732 114.088478,165.282921 126.738281,156.692383 C139.388084,148.101845 152.037697,143.806641 164.6875,143.806641 Z M152.792969,156.833984 C141.65359,156.833984 130.844779,164.055592 120.366211,178.499023 C109.887643,192.942455 104.648438,208.188071 104.648438,224.236328 C104.648438,242.739025 109.462842,251.990234 119.091797,251.990234 C125.888706,251.990234 133.487914,245.099027 141.889648,231.316406 C150.291383,217.533785 155.908189,203.562571 158.740234,189.402344 L164.404297,160.515625 C162.138661,158.061186 158.268257,156.833984 152.792969,156.833984 Z" id="a" fill="#FFFFFF" sketch:type="MSShapeGroup"></path>
    </g>
</svg>
