<?xml version="1.0" encoding="UTF-8" standalone="no"?>
<svg width="248px" height="246px" viewBox="0 0 248 246" version="1.1" xmlns="http://www.w3.org/2000/svg" xmlns:xlink="http://www.w3.org/1999/xlink" xmlns:sketch="http://www.bohemiancoding.com/sketch/ns">
    <!-- Generator: Sketch 3.0.4 (8054) - http://www.bohemiancoding.com/sketch -->
    <title>glyph-logo 2</title>
    <desc>Created with Sketch.</desc>
    <defs></defs>
    <g id="letters" stroke="none" stroke-width="1" fill="none" fill-rule="evenodd" sketch:type="MSPage">
        <path class="white" d="M225.640625,0.693359375 C236.890681,0.693359375 244.09764,3.68161074 247.261719,9.65820312 C247.261719,21.0840415 244.097688,26.796875 237.769531,26.796875 C235.308581,26.796875 232.979503,25.4785288 230.782227,22.8417969 C228.58495,20.2050649 226.299817,17.5244277 223.926758,14.7998047 C221.553699,12.0751817 218.960952,10.7128906 216.148437,10.7128906 C210.523409,10.7128906 204.546907,16.469669 198.21875,27.9833984 C191.890593,39.4971279 186.968768,55.5370065 183.453125,76.1035156 L183.453125,76.6308594 C183.453125,77.3339879 183.716794,77.6855469 184.244141,77.6855469 L214.566406,77.6855469 C215.445317,77.6855469 215.884766,78.7402238 215.884766,80.8496094 C215.884766,83.6621234 214.917978,86.6503748 212.984375,89.8144531 L182.134766,89.8144531 C181.255855,89.8144531 180.728517,90.5175711 180.552734,91.9238281 L166.050781,170.761719 C161.83201,195.195435 154.405327,213.828061 143.770508,226.660156 C133.135689,239.492252 121.578187,245.908203 109.097656,245.908203 C102.945282,245.908203 98.1113457,244.809581 94.5957031,242.612305 C91.0800605,240.415028 88.7949271,237.91017 87.7402344,235.097656 C87.5644522,231.054667 88.5312395,227.451188 90.640625,224.287109 C92.7500105,221.123031 95.3867029,219.541016 98.5507812,219.541016 C100.13282,219.541016 101.626946,220.375968 103.033203,222.045898 C104.43946,223.715829 105.669917,225.561513 106.724609,227.583008 C107.779302,229.604502 109.317373,231.450187 111.338867,233.120117 C113.360362,234.790047 115.60155,235.625 118.0625,235.625 C121.40236,235.625 124.742171,233.559591 128.082031,229.428711 C131.421892,225.297831 134.278308,220.112336 136.651367,213.87207 C139.024426,207.631805 141.04589,201.699247 142.71582,196.074219 C144.385751,190.449191 145.572262,185.439475 146.275391,181.044922 L162.095703,91.6601562 L162.095703,91.1328125 C162.095703,90.2539019 161.832034,89.8144531 161.304688,89.8144531 L144.166016,89.8144531 C143.814451,89.8144531 143.638672,89.5507839 143.638672,89.0234375 C143.638672,87.4413983 145.044908,85.1562649 147.857422,82.1679688 C150.669936,79.1796726 153.482408,77.6855469 156.294922,77.6855469 L163.941406,77.6855469 C164.644535,77.6855469 165.171873,76.8945392 165.523438,75.3125 C169.03908,53.6912981 176.597598,35.8496797 188.199219,21.7871094 C199.800839,7.72453906 212.281183,0.693359375 225.640625,0.693359375 L225.640625,0.693359375 Z" id="f-white" fill="#FFFFFF" sketch:type="MSShapeGroup"></path>
        <path class="white" d="M81.6875,32.8066406 C88.862015,32.8066406 95.7532222,34.0338419 102.361328,36.4882812 L85.0859375,125.980469 C84.5195284,128.246105 84.2363281,130.606108 84.2363281,133.060547 C84.2363281,137.780623 85.1803291,140.140625 87.0683594,140.140625 C88.2011775,140.140625 89.569979,139.621424 91.1748047,138.583008 C92.7796304,137.544591 94.3844321,136.27019 95.9892578,134.759766 C97.5940835,133.249341 99.0572851,131.78614 100.378906,130.370117 C101.700527,128.954094 102.927729,127.679693 104.060547,126.546875 L105.759766,124.564453 C106.137372,124.564453 106.845372,125.461254 107.883789,127.254883 C108.922206,129.048512 109.441406,130.322913 109.441406,131.078125 C106.986967,135.231792 101.889362,140.706997 94.1484375,147.503906 C86.4075134,154.300815 79.6107063,157.699219 73.7578125,157.699219 C70.7369641,157.699219 68.3769616,156.330417 66.6777344,153.592773 C64.9785071,150.85513 64.1289062,147.315126 64.1289062,142.972656 C64.1289062,139.763005 64.7897069,134.7598 66.1113281,127.962891 C66.4889342,125.886057 66.8193345,124.234056 67.1025391,123.006836 C67.3857436,121.779616 67.5273438,120.977215 67.5273438,120.599609 C65.6393135,123.998064 63.4681112,127.443667 61.0136719,130.936523 C58.5592325,134.429379 55.4440293,138.346983 51.6679688,142.689453 C47.8919082,147.031923 43.8799041,150.571926 39.6318359,153.30957 C35.3837678,156.047214 31.3717637,157.416016 27.5957031,157.416016 C19.2883699,157.416016 12.7275631,153.687212 7.91308594,146.229492 C3.09860874,138.771773 0.69140625,129.756563 0.69140625,119.183594 C0.69140625,105.778579 4.7034104,92.3265649 12.7275391,78.8271484 C20.7516677,65.327732 31.0884784,54.2829206 43.7382812,45.6923828 C56.3880841,37.1018451 69.0376972,32.8066406 81.6875,32.8066406 Z M69.7929688,45.8339844 C58.6535901,45.8339844 47.844779,53.0555918 37.3662109,67.4990234 C26.8876429,81.942455 21.6484375,97.1880708 21.6484375,113.236328 C21.6484375,131.739025 26.4628425,140.990234 36.0917969,140.990234 C42.8887059,140.990234 50.4879137,134.099027 58.8896484,120.316406 C67.2913832,106.533785 72.908189,92.5625708 75.7402344,78.4023438 L81.4042969,49.515625 C79.1386605,47.0611856 75.2682565,45.8339844 69.7929688,45.8339844 Z" id="a-white" fill="#FFFFFF" sketch:type="MSShapeGroup"></path>
    </g>
</svg>
