<?xml version="1.0" encoding="UTF-8" standalone="no"?>
<svg width="651px" height="95px" viewBox="0 0 651 95" version="1.1" xmlns="http://www.w3.org/2000/svg" xmlns:xlink="http://www.w3.org/1999/xlink" xmlns:sketch="http://www.bohemiancoding.com/sketch/ns">
    <!-- Generator: Sketch 3.0.4 (8054) - http://www.bohemiancoding.com/sketch -->
    <title>alternative fiction</title>
    <desc>Created with Sketch.</desc>
    <defs></defs>
    <g id="Text-Logo" stroke="none" stroke-width="1" fill="none" fill-rule="evenodd" sketch:type="MSPage">
        <path d="M28.7592822,26.5918936 C31.3067372,26.5918936 33.753598,27.0276359 36.0999381,27.8991337 L29.9659653,59.6751238 C29.7648505,60.4795832 29.6642946,61.3175493 29.6642946,62.189047 C29.6642946,63.8650043 29.999481,64.7029703 30.6698639,64.7029703 C31.0720936,64.7029703 31.5581139,64.5186178 32.1279394,64.1499072 C32.6977648,63.7811966 33.2675817,63.3286949 33.8374072,62.7923886 C34.4072326,62.2560823 34.9267716,61.7365434 35.3960396,61.2337562 C35.8653076,60.730969 36.30105,60.2784674 36.7032797,59.8762376 L37.3066213,59.1723391 C37.4406979,59.1723391 37.6920877,59.4907662 38.0607983,60.12763 C38.4295089,60.7644937 38.6138614,61.2169954 38.6138614,61.4851485 C37.7423636,62.9599909 35.932357,64.9040721 33.1837871,67.3174505 C30.4352173,69.7308289 28.0218751,70.9375 25.9436881,70.9375 C24.8710755,70.9375 24.0331095,70.4514797 23.4297649,69.4794245 C22.8264203,68.5073693 22.5247525,67.2504203 22.5247525,65.7085396 C22.5247525,64.5688887 22.759383,62.7924007 23.228651,60.3790223 C23.3627276,59.6416011 23.4800428,59.0550249 23.5806002,58.619276 C23.6811577,58.1835271 23.7314356,57.8986187 23.7314356,57.7645421 C23.0610528,58.9712313 22.290124,60.1946617 21.4186262,61.43487 C20.5471285,62.6750784 19.4410133,64.066102 18.1002475,65.6079827 C16.7594817,67.1498633 15.3349395,68.4068124 13.826578,69.3788676 C12.3182165,70.3509228 10.8936742,70.8369431 9.55290842,70.8369431 C6.6032237,70.8369431 4.2736781,69.5129567 2.56420173,66.8649443 C0.854725364,64.2169319 0,61.0159016 0,57.2617574 C0,52.5020389 1.42454227,47.7256325 4.27366955,42.9323948 C7.12279684,38.1391571 10.7930881,34.2174761 15.2846535,31.1672339 C19.7762188,28.1169918 24.2677168,26.5918936 28.7592822,26.5918936 Z M24.5358911,31.2175124 C20.580632,31.2175124 16.7427476,33.7816885 13.0221225,38.9101176 C9.30149749,44.0385467 7.44121287,49.4518073 7.44121287,55.1500619 C7.44121287,61.7198142 9.1506636,65.0046411 12.5696163,65.0046411 C14.9829947,65.0046411 17.6812454,62.5577802 20.6644493,57.6639851 C23.6476531,52.7701901 25.6420123,47.8094311 26.6475866,42.7815594 L28.6587252,32.5247525 C27.8542658,31.6532547 26.4800015,31.2175124 24.5358911,31.2175124 Z M46.9600866,60.3790223 L56.4124381,11.6089109 C56.613553,10.6033366 56.7141089,9.66481459 56.7141089,8.79331683 C56.7141089,7.51958934 54.6694718,6.88273515 50.5801361,6.88273515 C50.3790213,6.88273515 50.2784653,6.6816233 50.2784653,6.27939356 C50.2784653,5.4749341 50.5466145,4.80456126 51.0829208,4.26825495 C55.6415244,3.86602522 59.9319106,2.92750325 63.9542079,1.45266089 C64.3564377,1.65377576 64.5575495,2.29062995 64.5575495,3.36324257 C64.5575495,4.16770204 64.1218072,6.68160017 63.2503094,10.9050124 L53.697401,59.6751238 C53.4962861,60.4795832 53.3957302,61.3175493 53.3957302,62.189047 C53.3957302,63.8650043 53.7309166,64.7029703 54.4012995,64.7029703 C54.8035292,64.7029703 55.2895495,64.5186178 55.859375,64.1499072 C56.4292005,63.7811966 57.0157767,63.3286949 57.6191213,62.7923886 C58.2224659,62.2560823 58.7587642,61.7365434 59.2280322,61.2337562 C59.6973002,60.730969 60.1162832,60.261708 60.4849938,59.8259592 C60.8537044,59.3902103 61.0380569,59.1723391 61.0380569,59.1723391 C61.2391718,59.1723391 61.5073209,59.4907662 61.8425124,60.12763 C62.1777038,60.7644937 62.345297,61.2169954 62.345297,61.4851485 C61.4737993,62.9599909 59.6637926,64.9040721 56.9152228,67.3174505 C54.1666529,69.7308289 51.7533107,70.9375 49.6751238,70.9375 C48.6695494,70.9375 47.8483427,70.4514797 47.211479,69.4794245 C46.5746152,68.5073693 46.2561881,67.2504203 46.2561881,65.7085396 C46.2561881,64.5688887 46.4908186,62.7924007 46.9600866,60.3790223 Z M80.7472153,15.832302 C80.9483302,15.1619191 82.5907437,14.8267327 85.674505,14.8267327 C86.4789644,14.8267327 87.0823,14.8602513 87.4845297,14.9272896 L84.9706064,28.1002475 L94.1212871,28.1002475 C94.4564786,28.1002475 94.6240718,28.5359899 94.6240718,29.4074876 C94.6240718,30.2119471 94.322404,31.1839877 93.7190594,32.3236386 L84.166151,32.3236386 L78.8366337,59.6751238 C78.6355188,60.4795832 78.5349629,61.3175493 78.5349629,62.189047 C78.5349629,63.8650043 78.8701493,64.7029703 79.5405322,64.7029703 C79.9427619,64.7029703 80.4287822,64.5186178 80.9986077,64.1499072 C81.5684331,63.7811966 82.13825,63.3286949 82.7080755,62.7923886 C83.277901,62.2560823 83.7974399,61.7365434 84.2667079,61.2337562 C84.7359759,60.730969 85.1717183,60.2784674 85.573948,59.8762376 L86.1772896,59.1723391 C86.3113662,59.1723391 86.562756,59.4907662 86.9314666,60.12763 C87.3001772,60.7644937 87.4845297,61.2169954 87.4845297,61.4851485 C86.6130319,62.9599909 84.8030253,64.9040721 82.0544554,67.3174505 C79.3058856,69.7308289 76.8925434,70.9375 74.8143564,70.9375 C73.7417438,70.9375 72.9037778,70.4514797 72.3004332,69.4794245 C71.6970886,68.5073693 71.3954208,67.2504203 71.3954208,65.7085396 C71.3954208,64.635927 71.6300513,62.859439 72.0993193,60.3790223 L77.5293936,32.3236386 L70.3898515,32.3236386 C70.1887366,32.3236386 70.0881807,31.9549336 70.0881807,31.2175124 C70.0881807,30.3460146 70.4904044,29.3069367 71.2948639,28.1002475 L78.333849,28.1002475 L80.7472153,15.832302 Z M118.25495,26.5918936 C121.338712,26.5918936 123.567701,27.3795816 124.941986,28.9549814 C126.316271,30.5303812 127.003403,32.2565913 127.003403,34.1336634 C127.003403,37.0833481 125.495065,39.9994699 122.478342,42.8821163 C119.461619,45.7647628 116.160032,47.9937524 112.573484,49.5691522 C108.986935,51.144552 106.087573,51.9322401 103.875309,51.9322401 C103.607156,51.9322401 103.473082,53.1053926 103.473082,55.4517327 C103.473082,58.4684557 104.059658,60.7644826 105.232828,62.3398824 C106.405998,63.9152822 107.998134,64.7029703 110.009282,64.7029703 C110.545588,64.7029703 111.065127,64.635933 111.567915,64.5018564 C112.070702,64.3677799 112.556722,64.2001866 113.02599,63.9990718 C113.495258,63.7979569 113.964519,63.5800857 114.433787,63.3454517 C114.903055,63.1108177 115.338797,62.8259093 115.741027,62.4907178 C116.143257,62.1555264 116.528721,61.8538586 116.897432,61.5857054 C117.266143,61.3175523 117.601329,61.0326438 117.903001,60.7309715 C118.204674,60.4292992 118.439304,60.1779094 118.6069,59.9767946 C118.774495,59.7756797 118.925329,59.6080865 119.059406,59.4740099 L119.361077,59.1723391 C119.495153,59.1723391 119.746543,59.4907662 120.115254,60.12763 C120.483964,60.7644937 120.668317,61.2169954 120.668317,61.4851485 C119.729781,63.0940675 117.852737,65.0716673 115.037129,67.4180074 C112.221521,69.7643475 109.439473,70.9375 106.690903,70.9375 C103.204912,70.9375 100.54018,69.579995 98.6966275,66.8649443 C96.8530745,64.1498936 95.9313119,60.4125651 95.9313119,55.6528465 C95.9313119,49.2171708 98.3781727,42.7648323 103.271968,36.2956374 C108.165763,29.8264425 113.160041,26.5918936 118.25495,26.5918936 Z M117.249381,30.7147277 C114.098582,30.7147277 111.132182,32.977236 108.350093,37.5023205 C105.568004,42.0274051 104.17698,45.5301031 104.17698,48.0105198 C104.17698,48.278673 104.311055,48.4127475 104.579208,48.4127475 C106.992586,48.4127475 110.126579,46.8038527 113.981281,43.5860149 C117.835983,40.368177 119.763304,37.0833501 119.763304,33.7314356 C119.763304,31.720287 118.925338,30.7147277 117.249381,30.7147277 Z M145.80755,26.5918936 C146.880162,26.5918936 147.718128,27.0779139 148.321473,28.0499691 C148.924817,29.0220242 149.226485,30.2789733 149.226485,31.820854 C149.226485,33.2956963 149.025373,35.0721843 148.623144,37.1503713 L147.014233,45.5971535 C148.69019,41.6418944 151.187329,37.4855828 154.505724,33.1280941 C157.824119,28.7706053 160.622926,26.5918936 162.902228,26.5918936 C165.18153,26.5918936 167.025055,27.6644901 168.432859,29.8097153 C168.432859,34.3012807 167.192669,36.5470297 164.712252,36.5470297 C164.175946,36.5470297 163.539092,36.1280467 162.801671,35.2900681 C162.06425,34.4520895 161.293321,34.0331064 160.488861,34.0331064 C158.544751,34.0331064 155.645388,36.9492283 151.790687,42.7815594 C147.935985,48.6138905 145.505884,54.278541 144.500309,59.7756807 L142.589728,70.3341584 C141.450077,70.5352733 140.343962,70.6358292 139.271349,70.6358292 C137.997622,70.6358292 136.757432,70.5352733 135.550743,70.3341584 L141.584158,39.3626238 C141.91935,36.9492454 142.086943,35.6084997 142.086943,35.3403465 C142.086943,33.6643893 141.751757,32.8264233 141.081374,32.8264233 C140.813221,32.8264233 140.444516,32.9772572 139.975248,33.2789295 C139.50598,33.5806018 139.019959,33.9660661 138.517172,34.4353342 C138.014385,34.9046022 137.561883,35.3403445 137.159653,35.7425743 C136.757424,36.144804 136.388719,36.5470277 136.053527,36.9492574 C135.718336,37.3514872 135.550743,37.552599 135.550743,37.552599 C135.416666,37.552599 135.165276,37.2341719 134.796566,36.5973082 C134.427855,35.9604444 134.243502,35.5079428 134.243502,35.2397896 C135.047962,33.8990238 136.740653,32.1225358 139.321627,29.9102723 C141.902602,27.6980087 144.064554,26.5918936 145.80755,26.5918936 Z M182.510829,26.5918936 C183.583442,26.5918936 184.421408,27.0779139 185.024752,28.0499691 C185.628097,29.0220242 185.929765,30.2789733 185.929765,31.820854 C185.929765,33.2956963 185.728653,35.0721843 185.326423,37.1503713 L183.516399,46.4016089 C184.186781,45.1949197 185.644842,43.1167639 187.890625,40.1670792 C190.136408,37.2173945 192.884936,34.2174761 196.136293,31.1672339 C199.38765,28.1169918 202.018864,26.5918936 204.030012,26.5918936 C207.381927,26.5918936 209.057859,28.8041239 209.057859,33.228651 C209.057859,36.245374 208.588598,39.8989059 207.650062,44.1893564 L204.331683,59.6751238 C204.130568,60.4795832 204.030012,61.3175493 204.030012,62.189047 C204.030012,63.8650043 204.365199,64.7029703 205.035582,64.7029703 C205.437811,64.7029703 205.923832,64.5186178 206.493657,64.1499072 C207.063483,63.7811966 207.6333,63.3286949 208.203125,62.7923886 C208.77295,62.2560823 209.292489,61.7365434 209.761757,61.2337562 C210.231025,60.730969 210.666768,60.2784674 211.068998,59.8762376 L211.672339,59.1723391 C211.806416,59.1723391 212.057805,59.4907662 212.426516,60.12763 C212.795227,60.7644937 212.979579,61.2169954 212.979579,61.4851485 C212.108081,62.9599909 210.298075,64.9040721 207.549505,67.3174505 C204.800935,69.7308289 202.387593,70.9375 200.309406,70.9375 C199.236793,70.9375 198.398827,70.4514797 197.795483,69.4794245 C197.192138,68.5073693 196.89047,67.2504203 196.89047,65.7085396 C196.89047,64.635927 197.125101,62.859439 197.594369,60.3790223 L201.113861,43.7871287 C201.583129,41.5748652 201.81776,39.7648585 201.81776,38.3570545 C201.81776,35.474408 201.180906,34.0331064 199.907178,34.0331064 C197.694915,34.0331064 194.259254,37.0665435 189.600093,43.1335087 C184.940932,49.2004738 181.941013,55.6528123 180.600248,62.4907178 L178.89078,70.3341584 C178.019282,70.6023116 176.980204,70.7363861 175.773515,70.7363861 C174.566826,70.7363861 173.427192,70.6023116 172.354579,70.3341584 L178.287438,39.3626238 C178.62263,36.9492454 178.790223,35.6084997 178.790223,35.3403465 C178.790223,33.6643893 178.455036,32.8264233 177.784653,32.8264233 C177.5165,32.8264233 177.147795,32.9772572 176.678527,33.2789295 C176.209259,33.5806018 175.723239,33.9660661 175.220452,34.4353342 C174.717665,34.9046022 174.265163,35.3403445 173.862933,35.7425743 C173.460703,36.144804 173.091998,36.5470277 172.756807,36.9492574 C172.421615,37.3514872 172.254022,37.552599 172.254022,37.552599 C172.119946,37.552599 171.868556,37.2341719 171.499845,36.5973082 C171.131135,35.9604444 170.946782,35.5079428 170.946782,35.2397896 C171.751242,33.8990238 173.443933,32.1225358 176.024907,29.9102723 C178.605881,27.6980087 180.767834,26.5918936 182.510829,26.5918936 Z M249.079517,26.5918936 C251.626972,26.5918936 254.073833,27.0276359 256.420173,27.8991337 L250.2862,59.6751238 C250.085086,60.4795832 249.98453,61.3175493 249.98453,62.189047 C249.98453,63.8650043 250.319716,64.7029703 250.990099,64.7029703 C251.392329,64.7029703 251.878349,64.5186178 252.448175,64.1499072 C253.018,63.7811966 253.587817,63.3286949 254.157642,62.7923886 C254.727468,62.2560823 255.247007,61.7365434 255.716275,61.2337562 C256.185543,60.730969 256.621285,60.2784674 257.023515,59.8762376 L257.626856,59.1723391 C257.760933,59.1723391 258.012323,59.4907662 258.381033,60.12763 C258.749744,60.7644937 258.934097,61.2169954 258.934097,61.4851485 C258.062599,62.9599909 256.252592,64.9040721 253.504022,67.3174505 C250.755452,69.7308289 248.34211,70.9375 246.263923,70.9375 C245.191311,70.9375 244.353345,70.4514797 243.75,69.4794245 C243.146655,68.5073693 242.844988,67.2504203 242.844988,65.7085396 C242.844988,64.5688887 243.079618,62.7924007 243.548886,60.3790223 C243.682963,59.6416011 243.800278,59.0550249 243.900835,58.619276 C244.001393,58.1835271 244.051671,57.8986187 244.051671,57.7645421 C243.381288,58.9712313 242.610359,60.1946617 241.738861,61.43487 C240.867364,62.6750784 239.761248,64.066102 238.420483,65.6079827 C237.079717,67.1498633 235.655175,68.4068124 234.146813,69.3788676 C232.638452,70.3509228 231.213909,70.8369431 229.873144,70.8369431 C226.923459,70.8369431 224.593913,69.5129567 222.884437,66.8649443 C221.174961,64.2169319 220.320235,61.0159016 220.320235,57.2617574 C220.320235,52.5020389 221.744777,47.7256325 224.593905,42.9323948 C227.443032,38.1391571 231.113323,34.2174761 235.604889,31.1672339 C240.096454,28.1169918 244.587952,26.5918936 249.079517,26.5918936 Z M244.856126,31.2175124 C240.900867,31.2175124 237.062983,33.7816885 233.342358,38.9101176 C229.621733,44.0385467 227.761448,49.4518073 227.761448,55.1500619 C227.761448,61.7198142 229.470899,65.0046411 232.889851,65.0046411 C235.30323,65.0046411 238.001481,62.5577802 240.984684,57.6639851 C243.967888,52.7701901 245.962247,47.8094311 246.967822,42.7815594 L248.97896,32.5247525 C248.174501,31.6532547 246.800237,31.2175124 244.856126,31.2175124 Z M276.129332,15.832302 C276.330447,15.1619191 277.97286,14.8267327 281.056621,14.8267327 C281.861081,14.8267327 282.464416,14.8602513 282.866646,14.9272896 L280.352723,28.1002475 L289.503403,28.1002475 C289.838595,28.1002475 290.006188,28.5359899 290.006188,29.4074876 C290.006188,30.2119471 289.70452,31.1839877 289.101176,32.3236386 L279.548267,32.3236386 L274.21875,59.6751238 C274.017635,60.4795832 273.917079,61.3175493 273.917079,62.189047 C273.917079,63.8650043 274.252266,64.7029703 274.922649,64.7029703 C275.324878,64.7029703 275.810899,64.5186178 276.380724,64.1499072 C276.950549,63.7811966 277.520366,63.3286949 278.090192,62.7923886 C278.660017,62.2560823 279.179556,61.7365434 279.648824,61.2337562 C280.118092,60.730969 280.553835,60.2784674 280.956064,59.8762376 L281.559406,59.1723391 C281.693483,59.1723391 281.944872,59.4907662 282.313583,60.12763 C282.682294,60.7644937 282.866646,61.2169954 282.866646,61.4851485 C281.995148,62.9599909 280.185142,64.9040721 277.436572,67.3174505 C274.688002,69.7308289 272.27466,70.9375 270.196473,70.9375 C269.12386,70.9375 268.285894,70.4514797 267.68255,69.4794245 C267.079205,68.5073693 266.777537,67.2504203 266.777537,65.7085396 C266.777537,64.635927 267.012168,62.859439 267.481436,60.3790223 L272.91151,32.3236386 L265.771968,32.3236386 C265.570853,32.3236386 265.470297,31.9549336 265.470297,31.2175124 C265.470297,30.3460146 265.872521,29.3069367 266.67698,28.1002475 L273.715965,28.1002475 L276.129332,15.832302 Z M305.190285,26.5918936 C306.262897,26.5918936 307.100863,27.0779139 307.704208,28.0499691 C308.307553,29.0220242 308.60922,30.2789733 308.60922,31.820854 C308.60922,33.228658 308.408108,35.005146 308.005879,37.1503713 L303.581374,59.6751238 C303.380259,60.4795832 303.279703,61.3175493 303.279703,62.189047 C303.279703,63.8650043 303.614889,64.7029703 304.285272,64.7029703 C304.687502,64.7029703 305.173522,64.5186178 305.743348,64.1499072 C306.313173,63.7811966 306.88299,63.3286949 307.452816,62.7923886 C308.022641,62.2560823 308.54218,61.7365434 309.011448,61.2337562 C309.480716,60.730969 309.916458,60.2784674 310.318688,59.8762376 L310.92203,59.1723391 C311.056106,59.1723391 311.307496,59.4907662 311.676207,60.12763 C312.044917,60.7644937 312.22927,61.2169954 312.22927,61.4851485 C311.357772,62.9599909 309.547765,64.9040721 306.799196,67.3174505 C304.050626,69.7308289 301.637283,70.9375 299.559097,70.9375 C298.486484,70.9375 297.648518,70.4514797 297.045173,69.4794245 C296.441829,68.5073693 296.140161,67.2504203 296.140161,65.7085396 C296.140161,64.635927 296.374791,62.859439 296.844059,60.3790223 L300.966894,39.3626238 C301.302085,37.2844368 301.469678,35.9436911 301.469678,35.3403465 C301.469678,33.6643893 301.134492,32.8264233 300.464109,32.8264233 C300.195956,32.8264233 299.827251,32.9772572 299.357983,33.2789295 C298.888715,33.5806018 298.402694,33.9660661 297.899907,34.4353342 C297.39712,34.9046022 296.944618,35.3403445 296.542389,35.7425743 C296.140159,36.144804 295.771454,36.5470277 295.436262,36.9492574 L294.933478,37.552599 C294.799401,37.552599 294.548011,37.2341719 294.179301,36.5973082 C293.81059,35.9604444 293.626238,35.5079428 293.626238,35.2397896 C294.430697,33.8990238 296.123388,32.1225358 298.704363,29.9102723 C301.285337,27.6980087 303.447289,26.5918936 305.190285,26.5918936 Z M329.726176,26.5918936 C330.798788,26.5918936 331.636754,27.0779139 332.240099,28.0499691 C332.843444,29.0220242 333.145111,30.2789733 333.145111,31.820854 C333.145111,33.228658 332.944,35.005146 332.54177,37.1503713 L329.525062,52.5355817 C328.988756,55.7534196 328.720606,57.865094 328.720606,58.8706683 C328.720606,60.7477404 329.022274,62.0884861 329.625619,62.8929455 C330.228963,63.697405 331.30156,64.0996287 332.843441,64.0996287 C335.927202,64.0996287 339.530456,61.032673 343.653311,54.8986696 C347.776165,48.7646661 349.837562,43.5525173 349.837562,39.2620668 C349.837562,37.8542628 349.351542,36.3459239 348.379486,34.737005 C347.407431,33.128086 346.921411,31.9214149 346.921411,31.1169554 C346.921411,29.9102662 347.323635,28.854429 348.128094,27.9494121 C348.932554,27.0443952 349.904594,26.5918936 351.044245,26.5918936 C352.317973,26.5918936 353.390569,26.8600427 354.262067,27.396349 C355.200603,29.1393445 355.669864,31.0834257 355.669864,33.228651 C355.669864,38.792829 354.04421,44.5580353 350.792853,50.5244431 C347.541496,56.4908508 343.837686,61.2840166 339.681312,64.9040842 C335.524938,68.5241518 331.971962,70.3341584 329.022277,70.3341584 C326.742975,70.3341584 324.932969,69.5129517 323.592203,67.8705136 C322.251437,66.2280755 321.581064,64.0996418 321.581064,61.4851485 C321.581064,59.6080764 321.715139,58.1332562 321.983292,57.0606436 L325.402228,39.3626238 C325.804457,37.9548197 326.005569,36.614074 326.005569,35.3403465 C326.005569,33.6643893 325.670383,32.8264233 325,32.8264233 C324.731847,32.8264233 324.363142,32.9772572 323.893874,33.2789295 C323.424606,33.5806018 322.938585,33.9660661 322.435798,34.4353342 C321.933011,34.9046022 321.480509,35.3403445 321.07828,35.7425743 C320.67605,36.144804 320.307345,36.5470277 319.972153,36.9492574 L319.469369,37.552599 C319.335292,37.552599 319.083902,37.2341719 318.715192,36.5973082 C318.346481,35.9604444 318.162129,35.5079428 318.162129,35.2397896 C318.966588,33.8990238 320.65928,32.1225358 323.240254,29.9102723 C325.821228,27.6980087 327.98318,26.5918936 329.726176,26.5918936 Z M383.021349,26.5918936 C386.10511,26.5918936 388.3341,27.3795816 389.708385,28.9549814 C391.08267,30.5303812 391.769802,32.2565913 391.769802,34.1336634 C391.769802,37.0833481 390.261463,39.9994699 387.24474,42.8821163 C384.228017,45.7647628 380.926431,47.9937524 377.339882,49.5691522 C373.753334,51.144552 370.853971,51.9322401 368.641708,51.9322401 C368.373555,51.9322401 368.23948,53.1053926 368.23948,55.4517327 C368.23948,58.4684557 368.826056,60.7644826 369.999226,62.3398824 C371.172397,63.9152822 372.764532,64.7029703 374.775681,64.7029703 C375.311987,64.7029703 375.831526,64.635933 376.334313,64.5018564 C376.8371,64.3677799 377.323121,64.2001866 377.792389,63.9990718 C378.261657,63.7979569 378.730918,63.5800857 379.200186,63.3454517 C379.669454,63.1108177 380.105196,62.8259093 380.507426,62.4907178 C380.909655,62.1555264 381.29512,61.8538586 381.66383,61.5857054 C382.032541,61.3175523 382.367727,61.0326438 382.6694,60.7309715 C382.971072,60.4292992 383.205703,60.1779094 383.373298,59.9767946 C383.540894,59.7756797 383.691728,59.6080865 383.825804,59.4740099 L384.127475,59.1723391 C384.261552,59.1723391 384.512942,59.4907662 384.881652,60.12763 C385.250363,60.7644937 385.434715,61.2169954 385.434715,61.4851485 C384.496179,63.0940675 382.619135,65.0716673 379.803527,67.4180074 C376.987919,69.7643475 374.205872,70.9375 371.457302,70.9375 C367.971311,70.9375 365.306579,69.579995 363.463026,66.8649443 C361.619473,64.1498936 360.69771,60.4125651 360.69771,55.6528465 C360.69771,49.2171708 363.144571,42.7648323 368.038366,36.2956374 C372.932161,29.8264425 377.926439,26.5918936 383.021349,26.5918936 Z M382.01578,30.7147277 C378.86498,30.7147277 375.89858,32.977236 373.116491,37.5023205 C370.334402,42.0274051 368.943379,45.5301031 368.943379,48.0105198 C368.943379,48.278673 369.077453,48.4127475 369.345606,48.4127475 C371.758985,48.4127475 374.892978,46.8038527 378.747679,43.5860149 C382.602381,40.368177 384.529703,37.0833501 384.529703,33.7314356 C384.529703,31.720287 383.691737,30.7147277 382.01578,30.7147277 Z M450.394493,0.547648515 C454.215675,0.547648515 457.031241,1.51968912 458.841275,3.4637995 C459.109428,4.737527 458.908316,6.14530995 458.237933,7.68719059 C457.56755,9.22907124 456.561991,10 455.221225,10 C454.416766,10 453.729634,9.6815729 453.159808,9.04470916 C452.589983,8.40784541 452.137481,7.70395394 451.80229,6.93301361 C451.467098,6.16207329 450.981078,5.45818181 450.344214,4.82131807 C449.70735,4.18445432 448.9867,3.86602723 448.18224,3.86602723 C446.640359,3.86602723 445.333132,5.70955252 444.26052,9.39665842 C443.187907,13.0837643 441.88068,19.5528622 440.3388,28.804146 L440.3388,29.0052599 C440.3388,29.2734131 440.439355,29.4074876 440.64047,29.4074876 L449.891708,29.4074876 C450.226899,29.4074876 450.394493,29.8097113 450.394493,30.6141708 C450.394493,31.6867834 450.025788,32.8264172 449.288366,34.0331064 L439.836015,34.0331064 C439.500823,34.0331064 439.299712,34.3012556 439.232673,34.8375619 L433.702042,64.9040842 C430.417166,84.0099965 424.249736,93.5628094 415.199567,93.5628094 C412.853227,93.5628094 411.009701,93.1438264 409.668936,92.3058478 C408.32817,91.4678692 407.456685,90.5125879 407.054455,89.4399752 C406.987417,87.8980946 407.356122,86.5238303 408.160582,85.3171411 C408.965041,84.1104519 409.9706,83.5071163 411.17729,83.5071163 C411.780634,83.5071163 412.316932,83.8255434 412.7862,84.4624072 C413.255469,85.0992709 413.657692,85.8031624 413.992884,86.5741027 C414.328075,87.345043 414.897892,88.0489345 415.702351,88.6857983 C416.506811,89.322662 417.478852,89.6410891 418.618502,89.6410891 C421.031881,89.6410891 423.545779,82.7027303 426.160272,68.8258045 L432.193688,34.737005 L432.193688,34.5358911 C432.193688,34.2006996 432.093132,34.0331064 431.892017,34.0331064 L425.355817,34.0331064 C425.22174,34.0331064 425.154703,33.9325505 425.154703,33.7314356 C425.154703,33.128091 425.691001,32.2566064 426.763614,31.1169554 C427.836226,29.9773045 428.908823,29.4074876 429.981436,29.4074876 L432.897587,29.4074876 C433.16574,29.4074876 433.366852,29.1058198 433.500928,28.5024752 C434.305388,24.4801779 435.059557,21.1450731 435.763459,18.4970606 C436.467361,15.8490482 437.47292,12.9832044 438.780167,9.89944307 C440.087414,6.81568178 441.713068,4.48613618 443.657178,2.91073639 C445.601289,1.33533659 447.847038,0.547648515 450.394493,0.547648515 Z M467.288057,26.5918936 C468.36067,26.5918936 469.198636,27.0779139 469.80198,28.0499691 C470.405325,29.0220242 470.706993,30.2789733 470.706993,31.820854 C470.706993,33.228658 470.505881,35.005146 470.103651,37.1503713 L465.679146,59.6751238 C465.478031,60.4795832 465.377475,61.3175493 465.377475,62.189047 C465.377475,63.8650043 465.712662,64.7029703 466.383045,64.7029703 C466.785274,64.7029703 467.271295,64.5186178 467.84112,64.1499072 C468.410946,63.7811966 468.980762,63.3286949 469.550588,62.7923886 C470.120413,62.2560823 470.639952,61.7365434 471.10922,61.2337562 C471.578488,60.730969 472.014231,60.2784674 472.41646,59.8762376 L473.019802,59.1723391 C473.153879,59.1723391 473.405268,59.4907662 473.773979,60.12763 C474.14269,60.7644937 474.327042,61.2169954 474.327042,61.4851485 C473.455544,62.9599909 471.645538,64.9040721 468.896968,67.3174505 C466.148398,69.7308289 463.735056,70.9375 461.656869,70.9375 C460.584256,70.9375 459.74629,70.4514797 459.142946,69.4794245 C458.539601,68.5073693 458.237933,67.2504203 458.237933,65.7085396 C458.237933,64.635927 458.472564,62.859439 458.941832,60.3790223 L463.064666,39.3626238 C463.399857,37.2844368 463.56745,35.9436911 463.56745,35.3403465 C463.56745,33.6643893 463.232264,32.8264233 462.561881,32.8264233 C462.293728,32.8264233 461.925023,32.9772572 461.455755,33.2789295 C460.986487,33.5806018 460.500467,33.9660661 459.997679,34.4353342 C459.494892,34.9046022 459.042391,35.3403445 458.640161,35.7425743 C458.237931,36.144804 457.869226,36.5470277 457.534035,36.9492574 L457.03125,37.552599 C456.897173,37.552599 456.645784,37.2341719 456.277073,36.5973082 C455.908362,35.9604444 455.72401,35.5079428 455.72401,35.2397896 C456.528469,33.8990238 458.221161,32.1225358 460.802135,29.9102723 C463.383109,27.6980087 465.545061,26.5918936 467.288057,26.5918936 Z M503.086324,26.5918936 C506.237124,26.5918936 509.153246,27.7315274 511.834777,30.0108292 C512.035892,30.8152887 512.136448,31.4856615 512.136448,32.0219678 C512.136448,33.2956953 511.818021,34.3347732 511.181157,35.1392327 C510.544293,35.9436921 509.689568,36.3459158 508.616955,36.3459158 C507.544343,36.3459158 506.438228,35.4073939 505.298577,33.5303218 C504.158926,31.6532497 503.019292,30.7147277 501.879641,30.7147277 C498.996995,30.7147277 495.997076,33.0442733 492.879796,37.7034344 C489.762515,42.3625955 488.203899,47.8093748 488.203899,54.0439356 C488.203899,61.1499943 490.416129,64.7029703 494.840656,64.7029703 C495.376962,64.7029703 495.896501,64.635933 496.399288,64.5018564 C496.902076,64.3677799 497.388096,64.2001866 497.857364,63.9990718 C498.326632,63.7979569 498.795893,63.5800857 499.265161,63.3454517 C499.734429,63.1108177 500.170171,62.8259093 500.572401,62.4907178 C500.974631,62.1555264 501.360095,61.8538586 501.728806,61.5857054 C502.097516,61.3175523 502.432703,61.0326438 502.734375,60.7309715 C503.036047,60.4292992 503.270678,60.1779094 503.438274,59.9767946 C503.605869,59.7756797 503.756703,59.6080865 503.89078,59.4740099 L504.19245,59.1723391 C504.326527,59.1723391 504.577917,59.4907662 504.946627,60.12763 C505.315338,60.7644937 505.499691,61.2169954 505.499691,61.4851485 C504.561155,63.0940675 502.684111,65.0716673 499.868502,67.4180074 C497.052894,69.7643475 494.270847,70.9375 491.522277,70.9375 C488.036286,70.9375 485.371554,69.579995 483.528001,66.8649443 C481.684448,64.1498936 480.762686,60.4125651 480.762686,55.6528465 C480.762686,49.2171708 483.209546,42.7648323 488.103342,36.2956374 C492.997137,29.8264425 497.991414,26.5918936 503.086324,26.5918936 Z M526.516089,15.832302 C526.717204,15.1619191 528.359617,14.8267327 531.443379,14.8267327 C532.247838,14.8267327 532.851174,14.8602513 533.253403,14.9272896 L530.73948,28.1002475 L539.890161,28.1002475 C540.225352,28.1002475 540.392946,28.5359899 540.392946,29.4074876 C540.392946,30.2119471 540.091278,31.1839877 539.487933,32.3236386 L529.935025,32.3236386 L524.605507,59.6751238 C524.404393,60.4795832 524.303837,61.3175493 524.303837,62.189047 C524.303837,63.8650043 524.639023,64.7029703 525.309406,64.7029703 C525.711636,64.7029703 526.197656,64.5186178 526.767481,64.1499072 C527.337307,63.7811966 527.907124,63.3286949 528.476949,62.7923886 C529.046775,62.2560823 529.566314,61.7365434 530.035582,61.2337562 C530.50485,60.730969 530.940592,60.2784674 531.342822,59.8762376 L531.946163,59.1723391 C532.08024,59.1723391 532.33163,59.4907662 532.70034,60.12763 C533.069051,60.7644937 533.253403,61.2169954 533.253403,61.4851485 C532.381906,62.9599909 530.571899,64.9040721 527.823329,67.3174505 C525.074759,69.7308289 522.661417,70.9375 520.58323,70.9375 C519.510618,70.9375 518.672652,70.4514797 518.069307,69.4794245 C517.465962,68.5073693 517.164295,67.2504203 517.164295,65.7085396 C517.164295,64.635927 517.398925,62.859439 517.868193,60.3790223 L523.298267,32.3236386 L516.158725,32.3236386 C515.95761,32.3236386 515.857054,31.9549336 515.857054,31.2175124 C515.857054,30.3460146 516.259278,29.3069367 517.063738,28.1002475 L524.102723,28.1002475 L526.516089,15.832302 Z M553.968131,26.5918936 C555.040744,26.5918936 555.87871,27.0779139 556.482054,28.0499691 C557.085399,29.0220242 557.387067,30.2789733 557.387067,31.820854 C557.387067,33.228658 557.185955,35.005146 556.783725,37.1503713 L552.35922,59.6751238 C552.158105,60.4795832 552.05755,61.3175493 552.05755,62.189047 C552.05755,63.8650043 552.392736,64.7029703 553.063119,64.7029703 C553.465349,64.7029703 553.951369,64.5186178 554.521194,64.1499072 C555.09102,63.7811966 555.660837,63.3286949 556.230662,62.7923886 C556.800488,62.2560823 557.320027,61.7365434 557.789295,61.2337562 C558.258563,60.730969 558.694305,60.2784674 559.096535,59.8762376 L559.699876,59.1723391 C559.833953,59.1723391 560.085343,59.4907662 560.454053,60.12763 C560.822764,60.7644937 561.007116,61.2169954 561.007116,61.4851485 C560.135619,62.9599909 558.325612,64.9040721 555.577042,67.3174505 C552.828472,69.7308289 550.41513,70.9375 548.336943,70.9375 C547.26433,70.9375 546.426364,70.4514797 545.82302,69.4794245 C545.219675,68.5073693 544.918007,67.2504203 544.918007,65.7085396 C544.918007,64.635927 545.152638,62.859439 545.621906,60.3790223 L549.74474,39.3626238 C550.079932,37.2844368 550.247525,35.9436911 550.247525,35.3403465 C550.247525,33.6643893 549.912338,32.8264233 549.241955,32.8264233 C548.973802,32.8264233 548.605097,32.9772572 548.135829,33.2789295 C547.666561,33.5806018 547.180541,33.9660661 546.677754,34.4353342 C546.174967,34.9046022 545.722465,35.3403445 545.320235,35.7425743 C544.918005,36.144804 544.5493,36.5470277 544.214109,36.9492574 L543.711324,37.552599 C543.577248,37.552599 543.325858,37.2341719 542.957147,36.5973082 C542.588437,35.9604444 542.404084,35.5079428 542.404084,35.2397896 C543.208544,33.8990238 544.901235,32.1225358 547.482209,29.9102723 C550.063183,27.6980087 552.225136,26.5918936 553.968131,26.5918936 Z M589.565285,26.5918936 C593.520544,26.5918936 596.587499,27.9661579 598.766244,30.7147277 C600.944988,33.4632976 602.034344,37.2509041 602.034344,42.0776609 C602.034344,48.9826047 599.604243,55.5019805 594.743967,61.6359839 C589.883691,67.7699874 584.906172,70.8369431 579.811262,70.8369431 C575.788965,70.8369431 572.722009,69.529716 570.610303,66.9152228 C568.498597,64.3007295 567.44276,60.5801603 567.44276,55.7534035 C567.44276,48.7814214 569.856102,42.178249 574.682859,35.9436881 C579.509616,29.7091272 584.470375,26.5918936 589.565285,26.5918936 Z M588.358601,30.7147277 C585.006687,30.7147277 581.956491,33.3459411 579.207921,38.6084468 C576.459351,43.8709525 575.085087,49.1501385 575.085087,54.4461634 C575.085087,58.3343841 575.705182,61.3510619 576.94539,63.4962871 C578.185598,65.6415124 579.744215,66.7141089 581.621287,66.7141089 C584.973202,66.7141089 587.939601,64.0828955 590.520575,58.8203899 C593.10155,53.5578842 594.392017,48.2451795 594.392017,42.8821163 C594.392017,38.9268573 593.855719,35.9101795 592.783106,33.8319926 C591.710494,31.7538056 590.235674,30.7147277 588.358601,30.7147277 Z M620.134592,26.5918936 C621.207204,26.5918936 622.04517,27.0779139 622.648515,28.0499691 C623.251859,29.0220242 623.553527,30.2789733 623.553527,31.820854 C623.553527,33.2956963 623.352415,35.0721843 622.950186,37.1503713 L621.140161,46.4016089 C621.810544,45.1949197 623.268605,43.1167639 625.514387,40.1670792 C627.76017,37.2173945 630.508699,34.2174761 633.760056,31.1672339 C637.011413,28.1169918 639.642626,26.5918936 641.653775,26.5918936 C645.005689,26.5918936 646.681621,28.8041239 646.681621,33.228651 C646.681621,36.245374 646.21236,39.8989059 645.273824,44.1893564 L641.955446,59.6751238 C641.754331,60.4795832 641.653775,61.3175493 641.653775,62.189047 C641.653775,63.8650043 641.988961,64.7029703 642.659344,64.7029703 C643.061574,64.7029703 643.547594,64.5186178 644.11742,64.1499072 C644.687245,63.7811966 645.257062,63.3286949 645.826887,62.7923886 C646.396713,62.2560823 646.916252,61.7365434 647.38552,61.2337562 C647.854788,60.730969 648.29053,60.2784674 648.69276,59.8762376 L649.296101,59.1723391 C649.430178,59.1723391 649.681568,59.4907662 650.050278,60.12763 C650.418989,60.7644937 650.603342,61.2169954 650.603342,61.4851485 C649.731844,62.9599909 647.921837,64.9040721 645.173267,67.3174505 C642.424697,69.7308289 640.011355,70.9375 637.933168,70.9375 C636.860556,70.9375 636.02259,70.4514797 635.419245,69.4794245 C634.8159,68.5073693 634.514233,67.2504203 634.514233,65.7085396 C634.514233,64.635927 634.748863,62.859439 635.218131,60.3790223 L638.737624,43.7871287 C639.206892,41.5748652 639.441522,39.7648585 639.441522,38.3570545 C639.441522,35.474408 638.804668,34.0331064 637.530941,34.0331064 C635.318677,34.0331064 631.883016,37.0665435 627.223855,43.1335087 C622.564694,49.2004738 619.564776,55.6528123 618.22401,62.4907178 L616.514542,70.3341584 C615.643044,70.6023116 614.603966,70.7363861 613.397277,70.7363861 C612.190588,70.7363861 611.050954,70.6023116 609.978342,70.3341584 L615.9112,39.3626238 C616.246392,36.9492454 616.413985,35.6084997 616.413985,35.3403465 C616.413985,33.6643893 616.078799,32.8264233 615.408416,32.8264233 C615.140263,32.8264233 614.771558,32.9772572 614.30229,33.2789295 C613.833022,33.5806018 613.347001,33.9660661 612.844214,34.4353342 C612.341427,34.9046022 611.888925,35.3403445 611.486696,35.7425743 C611.084466,36.144804 610.715761,36.5470277 610.380569,36.9492574 C610.045378,37.3514872 609.877785,37.552599 609.877785,37.552599 C609.743708,37.552599 609.492318,37.2341719 609.123608,36.5973082 C608.754897,35.9604444 608.570545,35.5079428 608.570545,35.2397896 C609.375004,33.8990238 611.067695,32.1225358 613.64867,29.9102723 C616.229644,27.6980087 618.391596,26.5918936 620.134592,26.5918936 L620.134592,26.5918936 Z" id="alternative-fiction" fill="#000000" sketch:type="MSShapeGroup"></path>
    </g>
</svg>